<?xml version="1.0" encoding="UTF-8"?>
<!DOCTYPE svg PUBLIC "-//W3C//DTD SVG 1.1//EN" "http://www.w3.org/Graphics/SVG/1.1/DTD/svg11.dtd">
<!-- Creator: CorelDRAW -->
<svg xmlns="http://www.w3.org/2000/svg" xml:space="preserve" width="92.8485mm" height="16.9819mm" version="1.1" style="shape-rendering:geometricPrecision; text-rendering:geometricPrecision; image-rendering:optimizeQuality; fill-rule:evenodd; clip-rule:evenodd"
viewBox="0 0 7449.89 1362.58"
 xmlns:xlink="http://www.w3.org/1999/xlink"
 xmlns:xodm="http://www.corel.com/coreldraw/odm/2003">
 <defs>
  <style type="text/css">
   <![CDATA[
    .fil2 {fill:#E30707}
    .fil1 {fill:#E30707}
    .fil0 {fill:white;fill-rule:nonzero}
   ]]>
  </style>
 </defs>
 <g id="Layer_x0020_1">
  <metadata id="CorelCorpID_0Corel-Layer"/>
  <path class="fil0" d="M2040.89 260.44c56.34,0 109.8,10.92 160.4,32.77 50.6,21.85 94.86,51.74 132.81,89.69 37.94,37.94 68.13,82.22 90.55,132.81 22.43,50.6 33.64,105.21 33.64,163.85 0,57.5 -10.92,111.25 -32.77,161.27 -21.85,50.02 -51.46,94.01 -88.83,131.95 -37.37,37.94 -81.35,67.84 -131.94,89.69 -50.6,21.85 -105.21,32.77 -163.85,32.77 -57.5,0 -111.54,-10.35 -162.13,-31.04 -50.59,-20.7 -94.86,-49.73 -132.81,-87.11 -37.94,-37.37 -67.84,-81.35 -89.69,-131.94 -21.85,-50.6 -32.77,-105.79 -32.77,-165.59 0,-57.49 10.64,-111.25 31.91,-161.26 21.27,-50.02 50.59,-93.72 87.96,-131.08 37.37,-37.37 81.64,-67.27 132.81,-89.69 51.17,-22.43 106.07,-34.78 164.72,-37.09zm0 225.95c-26.45,0 -51.18,4.89 -74.17,14.66 -23,9.77 -43.41,23.28 -61.23,40.54 -17.82,17.24 -31.91,37.66 -42.25,61.23 -10.35,23.57 -15.53,49.15 -15.53,76.75 0,26.45 5.18,51.46 15.53,75.03 10.34,23.57 24.43,44.27 42.25,62.1 17.82,17.82 38.23,31.91 61.23,42.25 23,10.35 47.72,15.53 74.17,15.53 26.45,0 51.46,-5.18 75.02,-15.53 23.57,-10.34 43.99,-24.43 61.24,-42.25 17.24,-17.82 31.04,-38.52 41.39,-62.1 10.34,-23.57 15.52,-48.58 15.52,-75.03 -2.29,-52.89 -21.27,-97.74 -56.91,-134.53 -35.65,-36.79 -81.07,-56.34 -136.26,-58.64z"/>
  <path class="fil0" d="M4260.69 262.17c114.98,0 212.72,40.25 293.21,120.73 19.55,21.85 28.46,47.72 26.73,77.61 -1.73,29.9 -12.93,54.62 -33.64,74.17 -20.69,19.55 -47.14,29.9 -79.34,31.04 -32.2,1.15 -58.65,-9.2 -79.34,-31.04 -35.65,-32.2 -78.19,-48.29 -127.63,-48.29 -26.45,0 -51.46,5.46 -75.03,16.38 -23.57,10.92 -44.27,25.3 -62.1,43.12 -17.82,17.82 -31.91,38.23 -42.25,61.23 -10.35,23 -15.53,47.15 -15.53,72.44 0,26.45 5.18,51.46 15.53,75.03 10.34,23.57 24.72,44.27 43.12,62.1 18.4,17.82 39.09,31.91 62.09,42.25 23,10.35 47.72,14.95 74.17,13.8 50.59,0 93.14,-15.53 127.63,-46.57 20.69,-23 47.14,-34.49 79.34,-34.49 32.2,0 58.65,11.5 79.34,34.49 10.35,9.2 18.4,20.12 24.15,32.77 5.74,12.65 8.91,25.88 9.48,39.67 0.58,13.8 -1.44,27.31 -6.03,40.54 -4.61,13.22 -11.51,25.01 -20.7,35.36 -40.25,40.25 -84.51,70.71 -132.81,91.41 -48.29,20.69 -101.76,31.04 -160.4,31.04 -57.5,0 -111.54,-11.21 -162.13,-33.64 -50.59,-22.42 -94.86,-52.6 -132.81,-90.55 -37.94,-37.94 -68.13,-82.22 -90.55,-132.81 -22.43,-50.6 -33.64,-104.07 -33.64,-160.41 0,-55.19 11.21,-108.08 33.64,-158.68 22.42,-50.59 52.89,-94.86 91.41,-132.81 38.52,-37.94 83.08,-68.42 133.67,-91.41 50.6,-23 104.07,-34.49 160.41,-34.49z"/>
  <path class="fil0" d="M5135.14 263.89c51.74,5.74 100.33,20.69 145.75,44.84 45.41,24.14 84.51,54.91 117.28,92.27 32.77,37.37 58.65,79.92 77.61,127.63 18.98,47.72 28.46,98.03 28.46,150.92l0 219.96 0 85.33 0 112.11 -112.11 0c-40.25,0 -72.45,-18.4 -96.59,-55.2 -5.75,2.3 -10.93,4.89 -15.53,7.77 -4.6,2.87 -9.2,5.46 -13.79,7.76 -27.6,12.65 -55.77,22.42 -84.52,29.32 -29.9,6.9 -61.51,10.35 -94.86,10.35 -86.24,0 -163.28,-23.28 -231.12,-69.85 -67.84,-46.57 -118.44,-106.65 -151.78,-180.24 -11.5,-26.45 -20.4,-53.47 -26.73,-81.07 -6.32,-27.59 -9.48,-56.34 -9.48,-86.24 0,-29.9 3.16,-58.64 9.48,-86.24 6.33,-27.59 15.24,-54.62 26.73,-81.06 33.35,-74.74 83.94,-135.1 151.78,-181.1 67.84,-45.99 144.88,-68.99 231.12,-68.99 9.2,0 17.53,0 25.01,0 7.47,0 15.23,0.58 23.28,1.73zm-50.01 608.85c26.45,0 51.46,-4.89 75.02,-14.66 23.57,-9.77 43.99,-23.28 61.24,-40.54 17.24,-17.24 31.04,-37.66 41.39,-61.23 10.34,-23.57 15.52,-49.15 15.52,-76.75 0,-25.29 -5.18,-49.73 -15.52,-73.3 -10.35,-23.57 -24.44,-44.27 -42.26,-62.1 -17.82,-17.82 -38.52,-31.91 -62.1,-42.26 -23.57,-10.34 -48.01,-15.52 -73.3,-15.52 -25.3,0 -49.45,5.18 -72.45,15.52 -23,10.35 -43.41,24.44 -61.23,42.26 -17.82,17.82 -31.91,38.52 -42.25,62.1 -10.35,23.57 -15.53,48.01 -15.53,73.3 0,26.45 5.46,51.46 16.38,75.03 10.93,23.57 25.3,43.99 43.12,61.23 17.82,17.25 38.23,31.05 61.23,41.39 23,10.35 46.57,15.53 70.72,15.53z"/>
  <path class="fil0" d="M6026.86 262.17c56.34,0 109.81,10.92 160.41,32.77 50.59,21.85 94.86,51.74 132.81,89.69 37.94,37.94 68.13,82.22 90.55,132.81 22.43,50.6 33.64,104.64 33.64,162.13 0,57.5 -10.64,111.54 -31.91,162.13 -21.27,50.59 -50.59,94.86 -87.96,132.81 -37.37,37.94 -81.64,67.84 -132.81,89.69 -51.17,21.85 -106.07,32.77 -164.72,32.77 -71.29,0 -135.68,-14.37 -193.17,-43.12l0 198.35c0,29.9 -10.93,55.77 -32.78,77.62 -21.84,21.85 -48.86,32.77 -81.06,32.77l-112.11 0 0 -105.21 0 -202.87 0 -374.93c0,-56.34 11.21,-109.8 33.64,-160.4 22.42,-50.59 52.6,-94.86 90.55,-132.81 37.94,-37.94 82.21,-68.13 132.81,-90.55 50.6,-22.43 104.64,-33.64 162.13,-33.64zm-193.17 417.39c0,28.75 5.18,54.91 15.52,78.48 10.35,23.57 24.44,43.99 42.26,61.23 17.82,17.25 38.52,30.76 62.09,40.54 23.57,9.77 48.01,14.66 73.3,14.66 27.6,0 52.89,-5.18 75.9,-15.53 23,-10.34 43.12,-24.43 60.36,-42.25 17.25,-17.82 30.76,-38.52 40.54,-62.1 9.77,-23.57 14.66,-48.58 14.66,-75.03 0,-26.45 -5.18,-51.46 -15.53,-75.02 -10.34,-23.57 -24.14,-43.99 -41.39,-61.23 -17.24,-17.25 -37.37,-30.76 -60.36,-40.54 -23,-9.77 -47.72,-14.66 -74.17,-14.66 -27.59,0 -53.18,5.18 -76.75,15.52 -23.57,10.35 -43.99,24.15 -61.24,41.39 -17.24,17.25 -30.75,37.37 -40.53,60.37 -9.77,23 -14.66,47.72 -14.66,74.16z"/>
  <path class="fil1" d="M1409.31 1045.14c-4.11,9.04 -12.96,19.95 -26.53,32.7 -13.58,12.75 -29.82,19.13 -48.74,19.13l247.92 0 0.01 -0.01 0.23 0.01c7.07,0 12.81,-5.73 12.81,-12.8l0 -0.02c0,-142.05 0.19,-284.14 0.19,-426.18 0,-7.17 -5.83,-13 -13.01,-13 -5.76,0 -10.64,3.76 -12.34,8.95l-0.05 0.12 -0.08 0.26 -160.42 390.83z"/>
  <path class="fil2" d="M1042.52 1045.14c4.11,9.04 12.96,19.95 26.53,32.7 13.58,12.75 29.82,19.13 48.74,19.13l-247.92 0 -0.01 -0.01 -0.23 0.01c-7.07,0 -12.81,-5.73 -12.81,-12.8l0 -0.02c0,-142.05 -0.19,-284.14 -0.19,-426.18 0,-7.17 5.83,-13 13.01,-13 5.76,0 10.64,3.76 12.34,8.95l0.05 0.12 0.08 0.26 160.42 390.83z"/>
  <path class="fil0" d="M256.8 295.11c51.07,-20.91 104.39,-30.28 159.91,-28.15 55.54,2.13 108.42,13.74 158.67,34.81 50.23,21.06 95.45,50.4 135.68,88 40.21,37.58 70.77,81.92 91.66,133 11.32,27.67 9.86,53.73 -4.36,78.19 -14.23,24.45 -36.98,42.46 -68.29,54.02l-424.65 173.66c59.94,46.31 120.76,56.86 182.49,31.59 17.03,-6.96 30.74,-14.44 41.15,-22.42 10.4,-7.98 19.26,-15.94 26.56,-23.91 7.3,-7.94 14.84,-15.38 22.58,-22.27 7.73,-6.89 17.46,-12.73 29.17,-17.52 15.65,-5.55 30.94,-8.02 45.88,-7.42l0.05 0 109.24 0 0 109.48 0 1.04c-0.06,13.52 -2.83,27.46 -8.31,41.81 -19.18,35.17 -44.46,64.45 -75.88,87.87 -31.42,23.41 -66.6,43.71 -105.55,60.87 -50.2,23.04 -102.97,33.74 -158.3,32.14 -55.3,-1.61 -108.08,-12.95 -158.32,-34.02 -50.24,-21.07 -95.52,-51.3 -135.87,-90.71 -40.34,-39.4 -70.96,-84.65 -91.85,-135.74 -20.45,-50.02 -29.88,-102.67 -28.28,-158 1.6,-55.32 12.66,-107.97 33.2,-157.99 20.54,-50.02 49.88,-95.25 88,-135.69 38.12,-40.43 83.26,-71.32 135.42,-92.64zm266.7 237.52c-31.57,-25.6 -62.32,-40.05 -92.25,-43.33 -29.93,-3.31 -59.79,1.16 -89.58,13.34 -30.87,12.62 -55.55,30.48 -74.07,53.59 -18.49,23.09 -30.06,54.83 -34.65,95.24l290.54 -118.84z"/>
  <path class="fil0" d="M6761.68 295.11c51.07,-20.91 104.39,-30.28 159.91,-28.15 55.54,2.13 108.42,13.74 158.67,34.81 50.23,21.06 95.45,50.4 135.68,88 40.21,37.58 70.77,81.92 91.66,133 11.32,27.67 9.86,53.73 -4.36,78.19 -14.23,24.45 -36.98,42.46 -68.29,54.02l-424.65 173.66c59.94,46.31 120.76,56.86 182.49,31.59 17.03,-6.96 30.74,-14.44 41.15,-22.42 10.4,-7.98 19.26,-15.94 26.56,-23.91 7.3,-7.94 14.84,-15.38 22.58,-22.27 7.73,-6.89 17.46,-12.73 29.17,-17.52 15.65,-5.55 30.94,-8.02 45.88,-7.42l0.05 0 109.24 0 0 109.48 0 1.04c-0.06,13.52 -2.83,27.46 -8.31,41.81 -19.18,35.17 -44.46,64.45 -75.88,87.87 -31.42,23.41 -66.6,43.71 -105.55,60.87 -50.2,23.04 -102.97,33.74 -158.3,32.14 -55.3,-1.61 -108.08,-12.95 -158.32,-34.02 -50.24,-21.07 -95.52,-51.3 -135.87,-90.71 -40.34,-39.4 -70.96,-84.65 -91.85,-135.74 -20.45,-50.02 -29.88,-102.67 -28.28,-158 1.6,-55.32 12.66,-107.97 33.2,-157.99 20.54,-50.02 49.88,-95.25 88,-135.69 38.12,-40.43 83.26,-71.32 135.42,-92.64zm266.7 237.52c-31.57,-25.6 -62.32,-40.05 -92.25,-43.33 -29.93,-3.31 -59.79,1.16 -89.58,13.34 -30.87,12.62 -55.55,30.48 -74.07,53.59 -18.49,23.09 -30.06,54.83 -34.65,95.24l290.54 -118.84z"/>
  <path class="fil0" d="M3713.93 369.1c0,29.9 -11.22,56.06 -33.64,78.48 -22.43,22.43 -47.44,33.64 -75.03,33.64l-296.66 0c-13.8,0 -25.59,4.02 -35.36,12.08 -9.77,8.05 -14.66,19.55 -14.66,34.49 0,16.1 4.89,28.46 14.66,37.09 9.77,8.62 21.56,12.93 35.36,12.93l194.9 0c35.65,0 68.71,7.47 99.18,22.42 30.47,14.95 56.91,34.78 79.34,59.5 22.42,24.72 39.96,50.89 52.6,78.48 12.65,27.59 18.98,58.65 18.98,93.14 1.15,37.94 -5.46,73.59 -19.83,106.94 -14.38,33.35 -33.64,61.52 -57.78,84.51 -24.15,23 -52.32,41.11 -84.52,54.33 -32.19,13.22 -68.41,19.83 -108.66,19.83l-317.36 0c-29.9,0 -55.76,-10.35 -77.61,-31.04 -21.85,-20.7 -32.77,-46.57 -32.77,-77.62 0,-28.74 10.34,-54.9 31.04,-78.47 20.69,-23.57 45.99,-35.94 75.89,-37.09l317.36 0c31.04,0 46.57,-13.8 46.57,-41.39 0,-31.04 -15.53,-46.57 -46.57,-46.57l-189.73 0c-34.49,0 -66.97,-7.19 -97.45,-21.56 -30.47,-14.37 -56.92,-34.21 -79.34,-59.5 -22.43,-25.3 -39.96,-52.89 -52.61,-82.79 -12.65,-29.9 -18.97,-62.1 -18.97,-96.59 0,-34.49 6.61,-67.84 19.83,-100.04 13.22,-32.19 31.33,-60.36 54.33,-84.51 23,-24.14 50.02,-43.41 81.06,-57.78 31.05,-14.37 64.97,-22.14 101.76,-23.28l273.72 0 33.29 0 108.66 0 0 110.38z"/>
  <path class="fil0" d="M2666.98 0l2.42 0.02 111.37 0 0 113.05 0.06 0.75 0 681.29c0,23 7.47,42.54 22.42,58.64 14.95,16.1 33.92,24.15 56.92,24.15 29.9,0 56.05,10.35 78.48,31.04 22.42,20.7 34.21,46.57 35.35,77.61 0,27.6 -9.48,52.03 -28.46,73.3 -18.97,21.28 -43.4,34.21 -73.3,38.81l-24.15 0c-40.25,0 -78.19,-8.34 -113.83,-25.01 -35.65,-16.67 -66.98,-38.81 -94.01,-66.4 -27.02,-27.59 -48.29,-59.79 -63.81,-96.59 -15.53,-36.8 -23.28,-75.31 -23.28,-115.56l0 -688.19c3.45,-28.74 15.52,-53.46 36.22,-74.16 20.28,-20.27 45.5,-31.16 75.7,-32.68l0 -0.06 1.37 0 0.55 -0.02z"/>
  <path class="fil0" d="M1577.75 434.65l-242.3 589.87c-5.74,12.65 -18.11,27.88 -37.08,45.7 -18.98,17.82 -41.68,26.73 -68.13,26.73 -23,0 -44.84,-5.46 -65.55,-16.38 -20.69,-10.93 -35.64,-29.61 -44.84,-56.05l-253.54 -608.85c-12.65,-29.9 -12.65,-58.93 0,-87.1 12.65,-28.17 33.92,-48.58 63.82,-61.23 29.89,-11.5 59.21,-10.93 87.96,1.73 28.74,12.65 49.44,33.92 62.09,63.81l146.61 331.16 144.88 -331.16c12.65,-29.9 33.63,-51.17 62.95,-63.81 14.96,-6.46 29.84,-9.76 44.65,-9.93l0 -0.1 170.87 0 -72.4 175.61 -0.01 0z"/>
  <path class="fil0" d="M7383.82 129.23c11.1,0 21.93,2.84 32.51,8.55 10.56,5.69 18.82,13.85 24.7,24.44 5.89,10.62 8.85,21.68 8.85,33.17 0,11.39 -2.9,22.37 -8.73,32.87 -5.8,10.53 -13.94,18.7 -24.43,24.5 -10.5,5.83 -21.48,8.73 -32.91,8.73 -11.45,0 -22.43,-2.9 -32.93,-8.73 -10.5,-5.8 -18.66,-13.97 -24.49,-24.5 -5.83,-10.5 -8.77,-21.47 -8.77,-32.87 0,-11.49 2.96,-22.55 8.88,-33.17 5.95,-10.59 14.21,-18.75 24.77,-24.44 10.58,-5.71 21.42,-8.55 32.54,-8.55zm0 10.95c-9.3,0 -18.36,2.39 -27.15,7.14 -8.79,4.76 -15.67,11.58 -20.64,20.43 -4.97,8.86 -7.45,18.07 -7.45,27.64 0,9.54 2.45,18.66 7.33,27.39 4.87,8.73 11.69,15.55 20.45,20.43 8.77,4.87 17.92,7.33 27.46,7.33 9.52,0 18.66,-2.46 27.43,-7.33 8.77,-4.88 15.58,-11.7 20.43,-20.43 4.85,-8.74 7.27,-17.85 7.27,-27.39 0,-9.57 -2.48,-18.78 -7.41,-27.64 -4.93,-8.85 -11.82,-15.67 -20.64,-20.43 -8.83,-4.75 -17.86,-7.14 -27.07,-7.14zm-29.04 91.69l0 -71.06 24.46 0c8.38,0 14.42,0.66 18.16,1.97 3.76,1.32 6.72,3.59 8.97,6.88 2.21,3.26 3.32,6.73 3.32,10.41 0,5.18 -1.85,9.72 -5.59,13.55 -3.71,3.85 -8.65,6.01 -14.81,6.48 2.52,1.05 4.55,2.3 6.04,3.77 2.87,2.78 6.37,7.48 10.53,14.09l8.67 13.91 -13.94 0 -6.34 -11.19c-4.97,-8.83 -9,-14.35 -12.05,-16.57 -2.09,-1.61 -5.14,-2.42 -9.18,-2.39l-6.76 0 0 30.15 -11.48 0zm11.48 -40.01l13.94 0c6.68,0 11.22,-0.99 13.64,-2.96 2.42,-1.97 3.65,-4.61 3.65,-7.84 0,-2.09 -0.6,-3.98 -1.77,-5.62 -1.17,-1.67 -2.78,-2.9 -4.85,-3.71 -2.09,-0.81 -5.92,-1.23 -11.55,-1.23l-13.07 0 0 21.36z"/>
 </g>
</svg>
